<?xml version="1.0" encoding="utf-8"?>
<!-- Generator: Adobe Illustrator 24.0.2, SVG Export Plug-In . SVG Version: 6.00 Build 0)  -->
<svg version="1.1" id="Capa_1" xmlns="http://www.w3.org/2000/svg" xmlns:xlink="http://www.w3.org/1999/xlink" x="0px" y="0px"
	 viewBox="0 0 95.6 239.6" style="enable-background:new 0 0 95.6 239.6;" xml:space="preserve">
<style type="text/css">
	.st0{enable-background:new    ;}
</style>
<g>
	<path d="M81.6,225.6c-9,9-21,14-33.8,14l0,0c-12.8,0-24.8-5-33.8-14s-14-21-14-33.8V61.5C0,55.2,5.2,50,11.5,50h5.1V2
		c0-1.1,0.9-2,2-2H77c0.5,0,1,0.2,1.4,0.6S79,1.5,79,2v48h5.1c3.1,0,6,1.2,8.1,3.4c2.2,2.2,3.4,5.1,3.4,8.1v130.3
		C95.6,204.5,90.6,216.5,81.6,225.6z M6.2,56.2C4.8,57.6,4,59.4,4,61.5v130.3c0,24.1,19.6,43.8,43.8,43.8l0,0
		c11.7,0,22.7-4.6,31-12.8c8.3-8.3,12.8-19.3,12.8-31V61.5c0-4.1-3.4-7.5-7.5-7.5H77l0,0H11.5C9.4,54,7.6,54.8,6.2,56.2z M49.8,50
		H75V4H49.8V50z M20.6,50h25.2V4H20.6V50z M55.3,172c-2,2-4.6,3.1-7.4,3.1s-5.4-1.1-7.4-3.1s-3.1-4.6-3.1-7.4s1.1-5.4,3.1-7.4
		c1.5-1.5,3.4-2.5,5.4-2.9v-12.1c-8.2-0.6-14.7-7.4-14.7-15.8v-6.9c-3-0.9-5.2-3.6-5.2-6.9c0-4,3.2-7.2,7.2-7.2l0,0
		c1.9,0,3.7,0.8,5.1,2.1s2.1,3.2,2.1,5.1s-0.7,3.7-2.1,5.1c-0.9,0.9-1.9,1.5-3.1,1.8v6.9c0,6.1,4.7,11.2,10.7,11.7v-48h-5.2
		c-0.7,0-1.4-0.4-1.7-1c-0.4-0.6-0.4-1.4,0-2l7.2-12.5c0.4-0.6,1-1,1.7-1s1.4,0.4,1.7,1l7.2,12.5c0.4,0.6,0.4,1.4,0,2s-1,1-1.7,1
		h-5.2v48c6-0.6,10.7-5.6,10.7-11.7v-17.1h-3c-0.5,0-1-0.2-1.4-0.6s-0.6-0.9-0.6-1.4v-10c0-1.1,0.9-2,2-2h10c0.5,0,1,0.2,1.4,0.6
		s0.6,0.9,0.6,1.4v10c0,1.1-0.9,2-2,2h-3v17.1c0,8.3-6.5,15.2-14.7,15.8v12.1c2,0.4,3.9,1.4,5.4,2.9c2,2,3.1,4.6,3.1,7.4
		C58.4,167.4,57.3,170,55.3,172z M43.3,160c-1.2,1.2-1.9,2.8-1.9,4.6c0,1.7,0.7,3.4,1.9,4.6c1.2,1.2,2.8,1.9,4.6,1.9
		c1.7,0,3.4-0.7,4.6-1.9c1.2-1.2,1.9-2.8,1.9-4.6s-0.7-3.4-1.9-4.6c-1.2-1.2-2.8-1.9-4.6-1.9l0,0C46.2,158.1,44.5,158.8,43.3,160z
		 M59.6,105.4h6v-6h-6V105.4z M30.9,110.3c-0.6,0.6-0.9,1.4-0.9,2.3c0,1.8,1.4,3.2,3.2,3.2c1.7,0,3.2-1.5,3.2-3.2
		c0-1.8-1.4-3.2-3.2-3.2C32.3,109.4,31.5,109.7,30.9,110.3z M44.2,86.2h7.5L48,79.7L44.2,86.2z M69.3,35.1L69.3,35.1
		c-0.4,0.4-0.9,0.6-1.4,0.6H57.1c-1.1,0-2-0.9-2-2V20.6c0-1.1,0.9-2,2-2h10.8c1.1,0,2,0.9,2,2v13.1C69.9,34.2,69.7,34.7,69.3,35.1z
		 M59,31.6h6.8v-9.1H59V31.6z M40,35.1c-0.4,0.4-0.9,0.6-1.4,0.6H27.8c-1.1,0-2-0.9-2-2V20.6c0-1.1,0.9-2,2-2h10.8c1.1,0,2,0.9,2,2
		v13.1C40.5,34.2,40.3,34.7,40,35.1z M29.7,31.6h6.8v-9.1h-6.8V31.6z"/>
	<g class="st0">
		<path d="M46.8,214.6h-3.2v-8.2h-8.3v8.2h-3.2v-18.5h3.2v7.7h8.3v-7.7h3.2V214.6z"/>
		<path d="M64.7,208.6c-0.2,2-0.9,3.5-2.2,4.6s-3,1.7-5.1,1.7c-1.5,0-2.8-0.3-3.9-1c-1.1-0.7-2-1.7-2.6-3s-0.9-2.8-1-4.5v-1.7
			c0-1.7,0.3-3.3,0.9-4.6c0.6-1.3,1.5-2.4,2.7-3.1s2.5-1.1,4-1.1c2,0,3.7,0.6,4.9,1.7c1.2,1.1,2,2.7,2.2,4.7h-3.2
			c-0.2-1.3-0.5-2.3-1.2-2.9c-0.6-0.6-1.5-0.9-2.7-0.9c-1.4,0-2.5,0.5-3.2,1.5s-1.1,2.5-1.1,4.5v1.6c0,2,0.4,3.5,1.1,4.6
			c0.7,1,1.8,1.6,3.1,1.6s2.2-0.3,2.8-0.9s1-1.5,1.2-2.8L64.7,208.6L64.7,208.6z"/>
	</g>
</g>
</svg>
